<svg width="201" height="201" viewBox="0 0 201 201" fill="none" xmlns="http://www.w3.org/2000/svg">
<g clip-path="url(#clip0_362_824)">
<path d="M158.287 -0.00354699H42.7125C31.4986 -0.104037 20.703 4.24883 12.6952 12.0997C4.68734 19.9505 0.121565 30.6578 0 41.8715L0 66.9965C0 69.2176 0.882364 71.3479 2.45298 72.9185C4.0236 74.4891 6.15381 75.3715 8.375 75.3715C10.5962 75.3715 12.7264 74.4891 14.297 72.9185C15.8676 71.3479 16.75 69.2176 16.75 66.9965V41.8715C16.869 35.0994 19.6692 28.651 24.5363 23.9409C29.4035 19.2307 35.9402 16.6434 42.7125 16.7465H158.287C165.06 16.6434 171.596 19.2307 176.464 23.9409C181.331 28.651 184.131 35.0994 184.25 41.8715V159.121C184.131 165.894 181.331 172.342 176.464 177.052C171.596 181.762 165.06 184.35 158.287 184.246H42.7125C35.9402 184.35 29.4035 181.762 24.5363 177.052C19.6692 172.342 16.869 165.894 16.75 159.121V133.996C16.75 131.775 15.8676 129.645 14.297 128.074C12.7264 126.504 10.5962 125.621 8.375 125.621C6.15381 125.621 4.0236 126.504 2.45298 128.074C0.882364 129.645 0 131.775 0 133.996L0 159.121C0.121565 170.335 4.68734 181.042 12.6952 188.893C20.703 196.744 31.4986 201.097 42.7125 200.996H158.287C169.501 201.097 180.297 196.744 188.305 188.893C196.313 181.042 200.878 170.335 201 159.121V41.8715C200.878 30.6578 196.313 19.9505 188.305 12.0997C180.297 4.24883 169.501 -0.104037 158.287 -0.00354699Z" fill="#090909"/>
<path d="M25.125 100.493C25.125 102.714 26.0074 104.844 27.578 106.415C29.1486 107.986 31.2788 108.868 33.5 108.868L143.95 108.617L107.744 144.822C106.944 145.594 106.306 146.519 105.868 147.54C105.429 148.562 105.198 149.661 105.188 150.773C105.178 151.885 105.39 152.988 105.811 154.017C106.232 155.047 106.854 155.982 107.641 156.768C108.427 157.554 109.362 158.176 110.391 158.597C111.421 159.018 112.523 159.23 113.635 159.221C114.747 159.211 115.846 158.98 116.868 158.541C117.89 158.102 118.814 157.464 119.587 156.664L157.994 118.256C162.705 113.545 165.351 107.155 165.351 100.493C165.351 93.8308 162.705 87.4413 157.994 82.7297L119.603 44.3219C118.024 42.7963 115.908 41.9522 113.712 41.9713C111.516 41.9903 109.416 42.8711 107.863 44.4239C106.31 45.9767 105.43 48.0773 105.41 50.2732C105.391 52.4691 106.236 54.5846 107.761 56.1642L143.455 91.8668L33.5 92.118C31.2788 92.118 29.1486 93.0004 27.578 94.571C26.0074 96.1416 25.125 98.2718 25.125 100.493Z" fill="#090909"/>
</g>
<defs>
<clipPath id="clip0_362_824">
<rect width="201" height="201" fill="white"/>
</clipPath>
</defs>
</svg>
