<svg width="201" height="201" viewBox="0 0 201 201" fill="none" xmlns="http://www.w3.org/2000/svg">
<g clip-path="url(#clip0_362_726)">
<path d="M58.625 184.25H41.875C35.2114 184.25 28.8208 181.603 24.1089 176.891C19.3971 172.179 16.75 165.789 16.75 159.125V41.875C16.75 35.2114 19.3971 28.8208 24.1089 24.1089C28.8208 19.3971 35.2114 16.75 41.875 16.75H58.625C60.8462 16.75 62.9764 15.8676 64.547 14.297C66.1176 12.7264 67 10.5962 67 8.375C67 6.15381 66.1176 4.0236 64.547 2.45298C62.9764 0.882364 60.8462 0 58.625 0L41.875 0C30.7731 0.0132983 20.1298 4.42939 12.2796 12.2796C4.42939 20.1298 0.0132983 30.7731 0 41.875L0 159.125C0.0132983 170.227 4.42939 180.87 12.2796 188.72C20.1298 196.571 30.7731 200.987 41.875 201H58.625C60.8462 201 62.9764 200.118 64.547 198.547C66.1176 196.976 67 194.846 67 192.625C67 190.404 66.1176 188.274 64.547 186.703C62.9764 185.132 60.8462 184.25 58.625 184.25Z" fill="#090909"/>
<path d="M192.624 92.1267L60.4915 92.3947C61.2261 91.0304 62.1448 89.7735 63.2218 88.6595L95.7084 56.1728C96.5083 55.4003 97.1463 54.4761 97.5853 53.4544C98.0242 52.4326 98.2552 51.3336 98.2649 50.2216C98.2746 49.1096 98.0627 48.0067 97.6416 46.9775C97.2204 45.9482 96.5986 45.0131 95.8122 44.2268C95.0259 43.4404 94.0908 42.8186 93.0615 42.3975C92.0323 41.9764 90.9295 41.7645 89.8174 41.7741C88.7054 41.7838 87.6064 42.0148 86.5847 42.4537C85.5629 42.8927 84.6387 43.5307 83.8662 44.3306L51.3628 76.8172C45.0825 83.0994 41.5544 91.6187 41.5544 100.502C41.5544 109.385 45.0825 117.904 51.3628 124.186L83.8494 156.673C84.622 157.473 85.5461 158.111 86.5679 158.55C87.5897 158.989 88.6887 159.22 89.8007 159.229C90.9127 159.239 92.0155 159.027 93.0448 158.606C94.074 158.185 95.0091 157.563 95.7955 156.777C96.5818 155.99 97.2037 155.055 97.6248 154.026C98.0459 152.997 98.2578 151.894 98.2481 150.782C98.2385 149.67 98.0074 148.571 97.5685 147.549C97.1296 146.527 96.4916 145.603 95.6917 144.831L63.205 112.344C62.2677 111.379 61.4495 110.305 60.7679 109.145L192.624 108.877C194.845 108.877 196.975 107.994 198.546 106.424C200.117 104.853 200.999 102.723 200.999 100.502C200.999 98.2805 200.117 96.1503 198.546 94.5797C196.975 93.0091 194.845 92.1267 192.624 92.1267Z" fill="#090909"/>
</g>
<defs>
<clipPath id="clip0_362_726">
<rect width="201" height="201" fill="white"/>
</clipPath>
</defs>
</svg>
